<svg width="268" height="218" viewBox="0 0 268 218" fill="none" xmlns="http://www.w3.org/2000/svg">
<path d="M95.3689 205.973H98.4376C98.4376 209.764 98.4376 213.578 98.4376 217.369H95.4619L95.2759 215.933C94.532 217.134 92.9046 217.604 91.812 217.628C88.441 217.652 86 215.438 86 211.671C86 207.88 88.5805 205.667 91.9049 205.714C93.3231 205.714 94.6482 206.279 95.2294 207.292L95.3689 205.973ZM89.3012 211.671C89.3012 213.555 90.6263 214.661 92.2769 214.661C94.1135 214.661 95.2526 213.202 95.2526 211.765C95.2526 210.117 94.2297 208.634 92.2769 208.634C90.6263 208.657 89.3012 209.788 89.3012 211.671Z" fill="#3A3852"/>
<path d="M112.363 201.241V217.369H109.411L109.201 215.909C108.155 217.275 106.877 217.581 105.458 217.581C102.157 217.581 99.9022 215.226 99.9022 211.671C99.9022 207.975 102.204 205.738 105.505 205.738C106.83 205.738 108.085 206.162 109.039 207.362V201.241H112.363ZM103.227 211.671C103.227 213.319 104.226 214.591 105.993 214.591C107.481 214.591 109.015 213.837 109.015 211.671C109.015 209.764 107.481 208.752 105.993 208.752C104.296 208.752 103.227 209.976 103.227 211.671Z" fill="#3A3852"/>
<path d="M124.359 215.862C123.011 217.204 121.383 217.604 119.965 217.604C116.687 217.604 113.804 215.791 113.804 211.671C113.804 207.833 116.664 205.691 119.942 205.691C121.592 205.691 122.894 206.067 124.033 207.268L122.22 209.364C121.546 208.822 120.779 208.704 120.105 208.704C118.454 208.704 117.129 209.788 117.129 211.671C117.129 213.484 118.5 214.544 120.035 214.544C120.756 214.544 121.778 214.237 122.313 213.696L124.359 215.862Z" fill="#3A3852"/>
<path d="M127.73 212.754C127.893 213.861 128.939 214.755 130.775 214.755C131.659 214.755 132.891 214.544 133.705 213.861L135.541 215.933C134.332 217.133 132.403 217.628 130.706 217.628C126.614 217.628 124.382 215.203 124.382 211.553C124.382 208.092 126.684 205.667 130.357 205.667C134.193 205.667 136.703 208.092 135.983 212.754H127.73ZM133.077 210.329C133.007 209.081 131.752 208.516 130.38 208.516C129.055 208.516 128.055 209.199 127.73 210.329H133.077Z" fill="#3A3852"/>
<path d="M145.631 217.369V211.341C145.631 209.599 144.887 208.681 143.306 208.681C141.772 208.657 140.749 209.999 140.749 211.483V217.369H137.517V205.973H140.493L140.609 207.433C141.609 206.115 142.887 205.691 144.259 205.691C146.793 205.691 148.955 206.892 148.955 211.318V217.369H145.631Z" fill="#3A3852"/>
<path d="M155.348 202.865V206.044H158.185V208.822H155.302V213.107C155.302 214.308 155.953 214.638 156.58 214.638C156.976 214.638 157.58 214.544 157.952 214.355L158.696 217.134C157.882 217.463 157.208 217.604 156.325 217.652C153.884 217.769 152.047 216.686 152.047 213.131V208.822H150.048V206.044H152.047V203.219L155.348 202.865Z" fill="#3A3852"/>
<path d="M162.439 212.754C162.602 213.861 163.648 214.755 165.484 214.755C166.368 214.755 167.6 214.544 168.414 213.861L170.25 215.933C169.041 217.133 167.112 217.628 165.415 217.628C161.323 217.628 159.091 215.203 159.091 211.553C159.091 208.092 161.393 205.667 165.066 205.667C168.902 205.667 171.413 208.092 170.692 212.754H162.439ZM167.763 210.329C167.693 209.081 166.438 208.516 165.066 208.516C163.741 208.516 162.741 209.199 162.416 210.329H167.763Z" fill="#3A3852"/>
<path d="M175.272 205.997L175.527 207.245C176.271 206.185 177.294 205.714 178.526 205.714C179.596 205.714 180.479 206.044 181.293 206.75L179.921 209.387C179.363 208.987 178.805 208.799 178.131 208.799C176.713 208.799 175.504 209.717 175.504 211.436V217.369H172.226V205.997H175.272Z" fill="#3A3852"/>
<path d="M144.831 18.4406C143.458 8.028 134.629 0 123.994 0C112.418 0 103 9.53822 103 21.2623C103 32.0325 110.927 40.9349 121.208 42.3259C122.581 52.6987 131.411 60.7664 142.006 60.7664C153.582 60.7664 163 51.2282 163 39.5041C163 28.7339 155.073 19.8316 144.831 18.4406ZM108.965 21.2623C108.965 12.8766 115.714 6.04087 123.994 6.04087C131.254 6.04087 137.336 11.2869 138.71 18.2419H121.012V36.1658C114.145 34.7748 108.965 28.6147 108.965 21.2623ZM139.024 24.2827V36.4837H126.976V24.2827H139.024ZM142.006 54.7256C134.746 54.7256 128.664 49.4795 127.29 42.5246H144.988V24.6007C151.855 25.9917 157.035 32.1518 157.035 39.5041C157.035 47.8898 150.286 54.7256 142.006 54.7256Z" fill="url(#paint0_linear)"/>
<path d="M98.8221 192.576V189.132C99.3681 189.832 100.11 190.168 100.908 190.168C102.644 190.168 103.904 188.866 103.904 186.612C103.904 184.358 102.644 183.07 100.908 183.07C100.082 183.07 99.3401 183.434 98.8221 184.092V183.238H97.0441V192.576H98.8221ZM102.056 186.612C102.056 187.788 101.37 188.586 100.348 188.586C99.7741 188.586 99.1161 188.236 98.8221 187.816V185.422C99.1161 184.988 99.7741 184.652 100.348 184.652C101.37 184.652 102.056 185.45 102.056 186.612ZM108.37 190.168C110.61 190.168 111.954 188.544 111.954 186.612C111.954 184.694 110.61 183.07 108.37 183.07C106.144 183.07 104.8 184.694 104.8 186.612C104.8 188.544 106.144 190.168 108.37 190.168ZM108.37 188.586C107.264 188.586 106.648 187.676 106.648 186.612C106.648 185.562 107.264 184.652 108.37 184.652C109.476 184.652 110.106 185.562 110.106 186.612C110.106 187.676 109.476 188.586 108.37 188.586ZM119.209 190H121.099L123.157 183.238H121.309L120.049 187.788L118.565 183.238H116.983L115.499 187.788L114.239 183.238H112.391L114.449 190H116.353L117.781 185.394L119.209 190ZM123.598 186.612C123.598 188.782 125.152 190.168 127.21 190.168C128.26 190.168 129.31 189.86 129.996 189.23L129.212 188.082C128.778 188.502 128.036 188.754 127.406 188.754C126.258 188.754 125.572 188.04 125.46 187.186H130.486V186.794C130.486 184.582 129.114 183.07 127.098 183.07C125.04 183.07 123.598 184.652 123.598 186.612ZM127.098 184.484C128.274 184.484 128.722 185.338 128.764 185.982H125.432C125.516 185.31 125.992 184.484 127.098 184.484ZM131.771 190H133.549V185.534C133.843 185.1 134.627 184.778 135.215 184.778C135.411 184.778 135.579 184.792 135.705 184.82V183.084C134.865 183.084 134.025 183.56 133.549 184.162V183.238H131.771V190ZM136.382 186.612C136.382 188.782 137.936 190.168 139.994 190.168C141.044 190.168 142.094 189.86 142.78 189.23L141.996 188.082C141.562 188.502 140.82 188.754 140.19 188.754C139.042 188.754 138.356 188.04 138.244 187.186H143.27V186.794C143.27 184.582 141.898 183.07 139.882 183.07C137.824 183.07 136.382 184.652 136.382 186.612ZM139.882 184.484C141.058 184.484 141.506 185.338 141.548 185.982H138.216C138.3 185.31 138.776 184.484 139.882 184.484ZM149.202 190H150.994V180.662H149.202V184.106C148.67 183.42 147.914 183.07 147.116 183.07C145.394 183.07 144.12 184.414 144.12 186.626C144.12 188.88 145.408 190.168 147.116 190.168C147.928 190.168 148.67 189.804 149.202 189.146V190ZM149.202 187.816C148.894 188.264 148.264 188.586 147.662 188.586C146.654 188.586 145.954 187.788 145.954 186.626C145.954 185.45 146.654 184.652 147.662 184.652C148.264 184.652 148.894 184.974 149.202 185.422V187.816ZM156.339 190H158.117V189.146C158.649 189.804 159.391 190.168 160.203 190.168C161.911 190.168 163.199 188.88 163.199 186.626C163.199 184.414 161.925 183.07 160.203 183.07C159.405 183.07 158.649 183.42 158.117 184.106V180.662H156.339V190ZM158.117 187.83V185.436C158.411 184.988 159.069 184.652 159.643 184.652C160.679 184.652 161.365 185.45 161.365 186.626C161.365 187.802 160.679 188.586 159.643 188.586C159.069 188.586 158.411 188.264 158.117 187.83ZM164.57 191.05L164.304 192.646C164.528 192.702 164.976 192.744 165.186 192.744C166.348 192.716 167.244 192.38 167.748 191.106L170.926 183.238H169.008L167.244 187.942L165.48 183.238H163.576L166.32 190.098L166.068 190.672C165.9 191.036 165.592 191.162 165.13 191.162C164.962 191.162 164.724 191.12 164.57 191.05Z" fill="#7F98A5"/>
<path d="M31.8884 121.242V119.982H28.5284V121.242H31.8884ZM55.323 124L51.655 114.662H49.611L45.943 124H47.805L48.491 122.194H52.775L53.461 124H55.323ZM52.313 120.752H48.953L50.633 116.3L52.313 120.752ZM64.815 124C67.727 124 69.687 122.082 69.687 119.324C69.687 116.594 67.727 114.662 64.801 114.662H61.329V124H64.815ZM64.801 122.558H62.967V116.104H64.815C66.887 116.104 68.007 117.532 68.007 119.324C68.007 121.102 66.831 122.558 64.801 122.558ZM85.9704 124V114.662H83.6604L81.1264 121.074L78.5784 114.662H76.2684V124H77.9064V116.79L80.7764 124H81.4764L84.3324 116.79V124H85.9704ZM94.5959 124V114.662H92.9579V124H94.5959ZM109.673 124V114.662H108.035V121.13L103.261 114.662H101.581V124H103.219V117.322L108.091 124H109.673ZM118.295 124V114.662H116.657V124H118.295ZM128.486 124.168C130.992 124.168 132.098 122.824 132.098 121.27C132.098 117.798 126.666 118.876 126.666 117.126C126.666 116.44 127.282 115.964 128.234 115.964C129.214 115.964 130.208 116.3 130.95 117.042L131.874 115.824C131.02 114.984 129.83 114.508 128.388 114.508C126.33 114.508 124.986 115.698 124.986 117.252C124.986 120.682 130.418 119.464 130.418 121.424C130.418 122.054 129.9 122.712 128.556 122.712C127.254 122.712 126.232 122.096 125.602 121.41L124.678 122.684C125.518 123.552 126.764 124.168 128.486 124.168ZM142.32 124V116.104H145.148V114.662H137.854V116.104H140.682V124H142.32ZM158.774 124L156.478 120.332C157.612 120.15 158.704 119.24 158.704 117.588C158.704 115.852 157.486 114.662 155.638 114.662H151.536V124H153.174V120.514H154.812L156.87 124H158.774ZM155.428 119.072H153.174V116.104H155.428C156.352 116.104 157.024 116.678 157.024 117.574C157.024 118.484 156.352 119.072 155.428 119.072ZM173.755 124L170.087 114.662H168.043L164.375 124H166.237L166.923 122.194H171.207L171.893 124H173.755ZM170.745 120.752H167.385L169.065 116.3L170.745 120.752ZM182.709 124V116.104H185.537V114.662H178.243V116.104H181.071V124H182.709ZM195.937 124.168C198.723 124.168 200.711 122.124 200.711 119.338C200.711 116.552 198.723 114.508 195.937 114.508C193.137 114.508 191.163 116.552 191.163 119.338C191.163 122.124 193.137 124.168 195.937 124.168ZM195.937 122.712C194.047 122.712 192.843 121.256 192.843 119.338C192.843 117.406 194.047 115.964 195.937 115.964C197.813 115.964 199.031 117.406 199.031 119.338C199.031 121.256 197.813 122.712 195.937 122.712ZM214.512 124L212.216 120.332C213.35 120.15 214.442 119.24 214.442 117.588C214.442 115.852 213.224 114.662 211.376 114.662H207.274V124H208.912V120.514H210.55L212.608 124H214.512ZM211.166 119.072H208.912V116.104H211.166C212.09 116.104 212.762 116.678 212.762 117.574C212.762 118.484 212.09 119.072 211.166 119.072ZM232.474 121.242V119.982H229.114V121.242H232.474Z" fill="#7F98A5"/>
<path d="M17.117 97.36C22.487 97.36 25.457 94.69 25.457 90.67C25.457 83.23 14.147 85.09 14.147 82.63C14.147 81.76 14.807 81.25 16.307 81.25C18.287 81.25 20.477 81.94 22.157 83.35L24.977 79.48C22.847 77.65 20.057 76.69 16.847 76.69C11.717 76.69 8.89695 79.69 8.89695 83.05C8.89695 90.76 20.207 88.57 20.207 91.21C20.207 92.2 19.127 92.8 17.387 92.8C14.627 92.8 12.407 91.6 10.967 90.16L8.23695 94.18C10.247 96.07 13.067 97.36 17.117 97.36ZM50.6103 97V86.5C50.6103 83.53 48.9303 82.15 46.2603 82.15C43.9803 82.15 42.0903 83.47 41.2503 84.73C40.6503 83.02 39.2403 82.15 37.1403 82.15C34.8603 82.15 33.0003 83.44 32.3703 84.28V82.51H27.7503V97H32.3703V87.64C32.8503 87.04 33.7203 86.23 34.9803 86.23C36.3603 86.23 36.8703 87.07 36.8703 88.18V97H41.4903V87.64C41.9403 87.04 42.8403 86.23 44.1003 86.23C45.4803 86.23 46.0203 87.07 46.0203 88.18V97H50.6103ZM67.1703 97V87.94C67.1703 83.44 63.9003 82.15 60.4203 82.15C58.2003 82.15 55.7103 82.81 53.8503 84.4L55.5603 87.61C56.7303 86.62 58.1703 86.05 59.6103 86.05C61.4703 86.05 62.5503 86.92 62.5503 88.18V89.62C61.6803 88.54 59.9703 87.91 58.0503 87.91C55.8303 87.91 53.0703 89.08 53.0703 92.59C53.0703 95.83 55.8303 97.36 58.0503 97.36C59.9103 97.36 61.6503 96.64 62.5503 95.56V97H67.1703ZM59.9703 94.33C58.7703 94.33 57.6603 93.79 57.6603 92.65C57.6603 91.51 58.7703 90.97 59.9703 90.97C60.9903 90.97 62.0703 91.3 62.5503 91.99V93.28C62.0703 93.97 60.9903 94.33 59.9703 94.33ZM75.1438 97V87.76C75.7438 86.95 77.3338 86.44 78.5338 86.44C79.0138 86.44 79.4038 86.47 79.6738 86.56V82.12C77.9638 82.12 76.1038 83.11 75.1438 84.28V82.51H70.5238V97H75.1438ZM87.2638 97.36C88.9738 97.36 90.1138 96.94 90.6838 96.4L89.7838 92.92C89.6338 93.1 89.1238 93.28 88.6138 93.28C87.8338 93.28 87.3538 92.65 87.3538 91.81V86.5H90.2938V82.51H87.3538V78.55H82.7338V82.51H80.3338V86.5H82.7338V93.1C82.7338 95.89 84.3238 97.36 87.2638 97.36ZM176.102 97L172.022 89.65C173.912 88.99 176.012 87.13 176.012 83.65C176.012 79.93 173.492 76.99 169.052 76.99H159.032V97H164.192V90.28H166.832L170.192 97H176.102ZM168.272 85.78H164.192V81.49H168.272C169.652 81.49 170.762 82.24 170.762 83.62C170.762 85.03 169.652 85.78 168.272 85.78ZM184.768 97.36C189.748 97.36 192.688 93.82 192.688 89.74C192.688 85.66 189.748 82.15 184.768 82.15C179.848 82.15 176.908 85.66 176.908 89.74C176.908 93.82 179.848 97.36 184.768 97.36ZM184.768 93.28C182.788 93.28 181.648 91.69 181.648 89.74C181.648 87.82 182.788 86.23 184.768 86.23C186.808 86.23 187.948 87.82 187.948 89.74C187.948 91.69 186.808 93.28 184.768 93.28ZM200.613 97.36C202.323 97.36 203.463 96.94 204.033 96.4L203.133 92.92C202.983 93.1 202.473 93.28 201.963 93.28C201.183 93.28 200.703 92.65 200.703 91.81V86.5H203.643V82.51H200.703V78.55H196.083V82.51H193.683V86.5H196.083V93.1C196.083 95.89 197.673 97.36 200.613 97.36ZM219.104 97V87.94C219.104 83.44 215.834 82.15 212.354 82.15C210.134 82.15 207.644 82.81 205.784 84.4L207.494 87.61C208.664 86.62 210.104 86.05 211.544 86.05C213.404 86.05 214.484 86.92 214.484 88.18V89.62C213.614 88.54 211.904 87.91 209.984 87.91C207.764 87.91 205.004 89.08 205.004 92.59C205.004 95.83 207.764 97.36 209.984 97.36C211.844 97.36 213.584 96.64 214.484 95.56V97H219.104ZM211.904 94.33C210.704 94.33 209.594 93.79 209.594 92.65C209.594 91.51 210.704 90.97 211.904 90.97C212.924 90.97 214.004 91.3 214.484 91.99V93.28C214.004 93.97 212.924 94.33 211.904 94.33ZM227.947 97.36C229.657 97.36 230.797 96.94 231.367 96.4L230.467 92.92C230.317 93.1 229.807 93.28 229.297 93.28C228.517 93.28 228.037 92.65 228.037 91.81V86.5H230.977V82.51H228.037V78.55H223.417V82.51H221.017V86.5H223.417V93.1C223.417 95.89 225.007 97.36 227.947 97.36ZM240.198 97.36C245.178 97.36 248.118 93.82 248.118 89.74C248.118 85.66 245.178 82.15 240.198 82.15C235.278 82.15 232.338 85.66 232.338 89.74C232.338 93.82 235.278 97.36 240.198 97.36ZM240.198 93.28C238.218 93.28 237.078 91.69 237.078 89.74C237.078 87.82 238.218 86.23 240.198 86.23C242.238 86.23 243.378 87.82 243.378 89.74C243.378 91.69 242.238 93.28 240.198 93.28ZM255.173 97V87.76C255.773 86.95 257.363 86.44 258.563 86.44C259.043 86.44 259.433 86.47 259.703 86.56V82.12C257.993 82.12 256.133 83.11 255.173 84.28V82.51H250.553V97H255.173Z" fill="#3A3852"/>
<path d="M97.8643 97V89.11H107.164V84.61H97.8643V81.49H107.374V76.99H92.7043V97H97.8643ZM114.665 97V76.99H110.045V97H114.665ZM124.944 97.36C129.924 97.36 132.864 93.82 132.864 89.74C132.864 85.66 129.924 82.15 124.944 82.15C120.024 82.15 117.084 85.66 117.084 89.74C117.084 93.82 120.024 97.36 124.944 97.36ZM124.944 93.28C122.964 93.28 121.824 91.69 121.824 89.74C121.824 87.82 122.964 86.23 124.944 86.23C126.984 86.23 128.124 87.82 128.124 89.74C128.124 91.69 126.984 93.28 124.944 93.28ZM153.119 97L157.409 82.51H152.639L150.329 91.39L147.479 82.51H143.369L140.519 91.39L138.179 82.51H133.439L137.729 97H142.709L145.409 88.03L148.139 97H153.119Z" fill="#36B8E1"/>
<defs>
<linearGradient id="paint0_linear" x1="117.84" y1="4.24236" x2="149.604" y2="57.6287" gradientUnits="userSpaceOnUse">
<stop stop-color="#67E6F5"/>
<stop offset="0.1483" stop-color="#5CD9EF"/>
<stop offset="1" stop-color="#2294D0"/>
</linearGradient>
</defs>
</svg>
