<svg width="183" height="32" viewBox="0 0 183 32" fill="none" xmlns="http://www.w3.org/2000/svg">
<path d="M45.1624 14.192C48.0264 14.192 49.6104 12.768 49.6104 10.624C49.6104 6.656 43.5784 7.648 43.5784 6.336C43.5784 5.872 43.9304 5.6 44.7304 5.6C45.7864 5.6 46.9544 5.968 47.8504 6.72L49.3544 4.656C48.2184 3.68 46.7304 3.168 45.0184 3.168C42.2824 3.168 40.7784 4.768 40.7784 6.56C40.7784 10.672 46.8104 9.504 46.8104 10.912C46.8104 11.44 46.2344 11.76 45.3064 11.76C43.8344 11.76 42.6504 11.12 41.8824 10.352L40.4264 12.496C41.4984 13.504 43.0024 14.192 45.1624 14.192ZM63.0255 14V8.4C63.0255 6.816 62.1295 6.08 60.7055 6.08C59.4895 6.08 58.4815 6.784 58.0335 7.456C57.7135 6.544 56.9615 6.08 55.8415 6.08C54.6255 6.08 53.6335 6.768 53.2975 7.216V6.272H50.8335V14H53.2975V9.008C53.5535 8.688 54.0175 8.256 54.6895 8.256C55.4255 8.256 55.6975 8.704 55.6975 9.296V14H58.1615V9.008C58.4015 8.688 58.8815 8.256 59.5535 8.256C60.2895 8.256 60.5775 8.704 60.5775 9.296V14H63.0255ZM71.8575 14V9.168C71.8575 6.768 70.1135 6.08 68.2575 6.08C67.0735 6.08 65.7455 6.432 64.7535 7.28L65.6655 8.992C66.2895 8.464 67.0575 8.16 67.8255 8.16C68.8175 8.16 69.3935 8.624 69.3935 9.296V10.064C68.9295 9.488 68.0175 9.152 66.9935 9.152C65.8095 9.152 64.3375 9.776 64.3375 11.648C64.3375 13.376 65.8095 14.192 66.9935 14.192C67.9855 14.192 68.9135 13.808 69.3935 13.232V14H71.8575ZM68.0175 12.576C67.3775 12.576 66.7855 12.288 66.7855 11.68C66.7855 11.072 67.3775 10.784 68.0175 10.784C68.5615 10.784 69.1375 10.96 69.3935 11.328V12.016C69.1375 12.384 68.5615 12.576 68.0175 12.576ZM76.11 14V9.072C76.43 8.64 77.278 8.368 77.918 8.368C78.174 8.368 78.382 8.384 78.526 8.432V6.064C77.614 6.064 76.622 6.592 76.11 7.216V6.272H73.646V14H76.11ZM82.574 14.192C83.486 14.192 84.094 13.968 84.398 13.68L83.918 11.824C83.838 11.92 83.566 12.016 83.294 12.016C82.878 12.016 82.622 11.68 82.622 11.232V8.4H84.19V6.272H82.622V4.16H80.158V6.272H78.878V8.4H80.158V11.92C80.158 13.408 81.006 14.192 82.574 14.192ZM129.955 14L127.779 10.08C128.787 9.728 129.907 8.736 129.907 6.88C129.907 4.896 128.563 3.328 126.195 3.328H120.851V14H123.603V10.416H125.011L126.803 14H129.955ZM125.779 8.016H123.603V5.728H125.779C126.515 5.728 127.107 6.128 127.107 6.864C127.107 7.616 126.515 8.016 125.779 8.016ZM134.576 14.192C137.232 14.192 138.8 12.304 138.8 10.128C138.8 7.952 137.232 6.08 134.576 6.08C131.952 6.08 130.384 7.952 130.384 10.128C130.384 12.304 131.952 14.192 134.576 14.192ZM134.576 12.016C133.52 12.016 132.912 11.168 132.912 10.128C132.912 9.104 133.52 8.256 134.576 8.256C135.664 8.256 136.272 9.104 136.272 10.128C136.272 11.168 135.664 12.016 134.576 12.016ZM143.027 14.192C143.939 14.192 144.547 13.968 144.851 13.68L144.371 11.824C144.291 11.92 144.019 12.016 143.747 12.016C143.331 12.016 143.075 11.68 143.075 11.232V8.4H144.643V6.272H143.075V4.16H140.611V6.272H139.331V8.4H140.611V11.92C140.611 13.408 141.459 14.192 143.027 14.192ZM152.889 14V9.168C152.889 6.768 151.145 6.08 149.289 6.08C148.105 6.08 146.777 6.432 145.785 7.28L146.697 8.992C147.321 8.464 148.089 8.16 148.857 8.16C149.849 8.16 150.425 8.624 150.425 9.296V10.064C149.961 9.488 149.049 9.152 148.025 9.152C146.841 9.152 145.369 9.776 145.369 11.648C145.369 13.376 146.841 14.192 148.025 14.192C149.017 14.192 149.945 13.808 150.425 13.232V14H152.889ZM149.049 12.576C148.409 12.576 147.817 12.288 147.817 11.68C147.817 11.072 148.409 10.784 149.049 10.784C149.593 10.784 150.169 10.96 150.425 11.328V12.016C150.169 12.384 149.593 12.576 149.049 12.576ZM157.605 14.192C158.517 14.192 159.125 13.968 159.429 13.68L158.949 11.824C158.869 11.92 158.597 12.016 158.325 12.016C157.909 12.016 157.653 11.68 157.653 11.232V8.4H159.221V6.272H157.653V4.16H155.189V6.272H153.909V8.4H155.189V11.92C155.189 13.408 156.037 14.192 157.605 14.192ZM164.139 14.192C166.795 14.192 168.363 12.304 168.363 10.128C168.363 7.952 166.795 6.08 164.139 6.08C161.515 6.08 159.947 7.952 159.947 10.128C159.947 12.304 161.515 14.192 164.139 14.192ZM164.139 12.016C163.083 12.016 162.475 11.168 162.475 10.128C162.475 9.104 163.083 8.256 164.139 8.256C165.227 8.256 165.835 9.104 165.835 10.128C165.835 11.168 165.227 12.016 164.139 12.016ZM172.126 14V9.072C172.446 8.64 173.294 8.368 173.934 8.368C174.19 8.368 174.398 8.384 174.542 8.432V6.064C173.63 6.064 172.638 6.592 172.126 7.216V6.272H169.662V14H172.126Z" fill="white"/>
<path d="M88.2276 14V9.792H93.1876V7.392H88.2276V5.728H93.2996V3.328H85.4756V14H88.2276ZM97.1881 14V3.328H94.7241V14H97.1881ZM102.67 14.192C105.326 14.192 106.894 12.304 106.894 10.128C106.894 7.952 105.326 6.08 102.67 6.08C100.046 6.08 98.4781 7.952 98.4781 10.128C98.4781 12.304 100.046 14.192 102.67 14.192ZM102.67 12.016C101.614 12.016 101.006 11.168 101.006 10.128C101.006 9.104 101.614 8.256 102.67 8.256C103.758 8.256 104.366 9.104 104.366 10.128C104.366 11.168 103.758 12.016 102.67 12.016ZM117.697 14L119.985 6.272H117.441L116.209 11.008L114.689 6.272H112.497L110.977 11.008L109.729 6.272H107.201L109.489 14H112.145L113.585 9.216L115.041 14H117.697Z" fill="#67E6F5"/>
<path d="M46.88 28L44.31 21.33H42.53L39.96 28H41.57L41.99 26.87H44.85L45.27 28H46.88ZM44.46 25.62H42.38L43.42 22.75L44.46 25.62ZM52.1359 28C54.2159 28 55.6659 26.68 55.6659 24.66C55.6659 22.66 54.2159 21.33 52.1259 21.33H49.4959V28H52.1359ZM52.1259 26.75H50.9159V22.58H52.1359C53.4959 22.58 54.2159 23.49 54.2159 24.66C54.2159 25.8 53.4459 26.75 52.1259 26.75ZM65.9037 28V21.33H63.9037L62.2837 25.5L60.6637 21.33H58.6737V28H60.0937V23.19L61.9737 28H62.5937L64.4737 23.19V28H65.9037ZM70.6484 28V21.33H69.2284V28H70.6484ZM79.9425 28V21.33H78.5225V25.52L75.4325 21.33H73.9725V28H75.3925V23.65L78.5725 28H79.9425ZM84.6777 28V21.33H83.2577V28H84.6777ZM90.3818 28.12C92.1718 28.12 93.0518 27.2 93.0518 25.98C93.0518 23.49 89.2218 24.2 89.2218 23.15C89.2218 22.75 89.5618 22.49 90.1618 22.49C90.8418 22.49 91.5618 22.72 92.1018 23.22L92.8918 22.16C92.2318 21.55 91.3518 21.23 90.2918 21.23C88.7218 21.23 87.7618 22.15 87.7618 23.26C87.7618 25.77 91.6018 24.96 91.6018 26.12C91.6018 26.51 91.2318 26.86 90.4418 26.86C89.5218 26.86 88.7918 26.44 88.3218 25.95L87.5418 27.06C88.1718 27.69 89.0918 28.12 90.3818 28.12ZM98.8409 28V22.58H100.781V21.33H95.4609V22.58H97.4109V28H98.8409ZM109.101 28L107.591 25.46C108.311 25.29 109.061 24.65 109.061 23.48C109.061 22.24 108.201 21.33 106.811 21.33H103.691V28H105.111V25.63H106.151L107.461 28H109.101ZM106.611 24.38H105.111V22.58H106.611C107.171 22.58 107.601 22.92 107.601 23.47C107.601 24.04 107.171 24.38 106.611 24.38ZM118.337 28L115.767 21.33H113.987L111.417 28H113.027L113.447 26.87H116.307L116.727 28H118.337ZM115.917 25.62H113.837L114.877 22.75L115.917 25.62ZM123.278 28V22.58H125.218V21.33H119.898V22.58H121.848V28H123.278ZM131.055 28.12C133.065 28.12 134.535 26.68 134.535 24.67C134.535 22.66 133.065 21.22 131.055 21.22C129.035 21.22 127.565 22.66 127.565 24.67C127.565 26.68 129.035 28.12 131.055 28.12ZM131.055 26.86C129.815 26.86 129.025 25.91 129.025 24.67C129.025 23.42 129.815 22.48 131.055 22.48C132.285 22.48 133.075 23.42 133.075 24.67C133.075 25.91 132.285 26.86 131.055 26.86ZM142.941 28L141.431 25.46C142.151 25.29 142.901 24.65 142.901 23.48C142.901 22.24 142.041 21.33 140.651 21.33H137.531V28H138.951V25.63H139.991L141.301 28H142.941ZM140.451 24.38H138.951V22.58H140.451C141.011 22.58 141.441 22.92 141.441 23.47C141.441 24.04 141.011 24.38 140.451 24.38Z" fill="white" fill-opacity="0.2"/>
<circle cx="16" cy="16" r="16" fill="url(#paint0_linear)"/>
<path d="M19.5494 12.4624C19.1373 9.37803 16.4886 7 13.2982 7C9.82538 7 7 9.82538 7 13.2982C7 16.4886 9.37803 19.1256 12.4624 19.5376C12.8744 22.6102 15.5232 25 18.7018 25C22.1746 25 25 22.1746 25 18.7018C25 15.5114 22.622 12.8744 19.5494 12.4624ZM8.7894 13.2982C8.7894 10.8143 10.8143 8.7894 13.2982 8.7894C15.4761 8.7894 17.3009 10.3434 17.7129 12.4035H12.4035V17.7129C10.3434 17.3009 8.7894 15.4761 8.7894 13.2982ZM17.8071 14.1929V17.8071H14.1929V14.1929H17.8071ZM18.7018 23.2106C16.5239 23.2106 14.6992 21.6566 14.2871 19.5965H19.5965V14.2871C21.6566 14.6992 23.2106 16.5239 23.2106 18.7018C23.2106 21.1857 21.1857 23.2106 18.7018 23.2106Z" fill="white"/>
<defs>
<linearGradient id="paint0_linear" x1="-1.93113e-07" y1="6.09524" x2="33.898" y2="29.2175" gradientUnits="userSpaceOnUse">
<stop stop-color="#67E6F5"/>
<stop offset="1" stop-color="#2294D0"/>
</linearGradient>
</defs>
</svg>
